<!--?xml version="1.0" encoding="utf-8"?-->
<!-- Generator: Adobe Illustrator 15.1.0, SVG Export Plug-In . SVG Version: 6.00 Build 0)  -->

<svg version="1.1" id="_x32_" xmlns="http://www.w3.org/2000/svg" xmlns:xlink="http://www.w3.org/1999/xlink" x="0px" y="0px" width="512px" height="512px" viewBox="0 0 512 512" style="width: 16px; height: 16px; opacity: 1;" xml:space="preserve">
<style type="text/css">

	.st0{fill:#4B4B4B;}

</style>
<g>
	<path class="st0" d="M264.031,196.25h-35.297v71.063h35.297c22.375,0,40.563-15.938,40.563-35.531S286.406,196.25,264.031,196.25z" style="fill: rgb(255, 255, 255);"></path>
	<path class="st0" d="M256,0C114.625,0,0,114.625,0,256c0,141.391,114.625,256,256,256s256-114.609,256-256
		C512,114.625,397.375,0,256,0z M264.031,306.813h-35.297v51.75c0,9.938-8.063,18-18.016,18h-9.031c-9.969,0-18.016-8.063-18.016-18
		V174.75c0-9.938,8.047-18,18.016-18h62.344c47.219,0,85.625,33.656,85.625,75.031S311.25,306.813,264.031,306.813z" style="fill: rgb(255, 255, 255);"></path>
</g>
</svg>
