<?xml version="1.0" encoding="utf-8"?>
<!-- Generator: Adobe Illustrator 26.2.1, SVG Export Plug-In . SVG Version: 6.00 Build 0)  -->
<svg version="1.1" id="Layer_1" xmlns="http://www.w3.org/2000/svg" xmlns:xlink="http://www.w3.org/1999/xlink" x="0px" y="0px"
	 viewBox="0 0 320.3 36" style="enable-background:new 0 0 320.3 36;" xml:space="preserve">
<style type="text/css">
	.st0{fill:#555555;}
	.st1{fill:#63AFA8;}
	.st2{fill:#EDC878;}
</style>
<g>
	<g>
		<path class="st0" d="M42.5,26.1c-0.9-0.2-1.7-0.5-2.4-0.8s-1.4-0.8-2.1-1.4l1.7-2.1c0.8,0.7,1.6,1.1,2.5,1.5s1.9,0.5,3,0.5
			c1.4,0,2.6-0.3,3.3-0.8s1.2-1.3,1.2-2.3v0c0-0.7-0.2-1.2-0.5-1.6s-0.8-0.7-1.4-0.9s-1.3-0.4-2.2-0.5c0,0-0.1,0-0.1,0s-0.1,0-0.1,0
			l-0.2,0c-1.3-0.2-2.4-0.5-3.2-0.8s-1.5-0.8-2.1-1.6s-0.9-1.8-0.9-3.2v0c0-1.2,0.3-2.3,0.8-3.2s1.4-1.5,2.4-2s2.3-0.7,3.8-0.7
			c0.7,0,1.4,0.1,2.1,0.2s1.4,0.4,2,0.7s1.3,0.7,2,1.2l-1.6,2.2c-0.8-0.6-1.5-1-2.3-1.3S46.7,8.7,46,8.7c-1.4,0-2.4,0.3-3.2,0.8
			s-1.1,1.3-1.1,2.3v0c0,0.7,0.2,1.2,0.6,1.6s0.9,0.7,1.4,0.9s1.4,0.4,2.4,0.6c0,0,0.1,0,0.1,0s0.1,0,0.1,0c0,0,0.1,0,0.2,0
			s0.1,0,0.2,0c1.2,0.2,2.2,0.5,3,0.9s1.5,0.9,2,1.6s0.8,1.8,0.8,3.1v0c0,1.2-0.3,2.2-0.9,3.1s-1.4,1.5-2.5,2s-2.4,0.7-3.9,0.7
			C44.2,26.4,43.3,26.3,42.5,26.1z"/>
		<path class="st0" d="M56.8,25.3c-0.9-0.7-1.3-1.8-1.3-3.3c0-1.4,0.4-2.5,1.2-3.2s2-1.1,3.6-1.1h4l0.2,2.2h-4.2
			c-0.7,0-1.3,0.2-1.6,0.5s-0.5,0.8-0.5,1.5c0,0.7,0.2,1.3,0.7,1.6s1.2,0.5,2.2,0.5c1.1,0,1.9-0.1,2.4-0.3s0.8-0.6,0.8-1.1l0.3,2
			c-0.2,0.4-0.5,0.7-0.9,0.9s-0.8,0.4-1.3,0.6s-1,0.2-1.6,0.2C59,26.4,57.7,26,56.8,25.3z M64.2,17.2c0-0.9-0.2-1.7-0.7-2.2
			s-1.2-0.8-2.1-0.8c-0.6,0-1.1,0.1-1.7,0.3s-1,0.4-1.4,0.7l-2-1.4c0.5-0.6,1.2-1.2,2.1-1.5s1.9-0.5,2.9-0.5c1.2,0,2.2,0.2,3,0.6
			s1.5,1,1.9,1.8s0.7,1.7,0.7,2.9v9.1h-2.7V17.2z"/>
		<path class="st0" d="M71.1,12h2.8v14.2h-2.8V12z M79.6,17.6c0-1-0.2-1.8-0.7-2.3s-1.2-0.8-2.1-0.8c-0.9,0-1.6,0.2-2.1,0.7
			s-0.7,1.2-0.7,2l-0.3-2.7c0.4-0.9,1-1.5,1.7-2s1.5-0.7,2.3-0.7c1,0,1.8,0.2,2.5,0.7s1.2,1.1,1.6,2s0.6,1.9,0.6,3.1v8.6h-2.8V17.6z
			 M88,17.6c0-1-0.3-1.8-0.8-2.3s-1.2-0.8-2.2-0.8c-0.9,0-1.5,0.3-2,0.8s-0.7,1.3-0.7,2.2l-0.6-2.7c0.4-0.9,1-1.7,1.8-2.2
			s1.5-0.8,2.4-0.8c1,0,1.9,0.2,2.6,0.7s1.3,1.1,1.7,2s0.6,1.9,0.6,3.1v8.6H88V17.6z"/>
		<path class="st0" d="M95.1,12h2.8v20h-2.8V12z M99.1,25.8c-0.7-0.4-1.1-1-1.4-1.8l0.2-3c0,0.6,0.1,1.1,0.3,1.6s0.5,0.8,1,1
			s0.9,0.3,1.5,0.3c0.9,0,1.6-0.3,2.1-0.8c0.5-0.6,0.8-1.4,0.8-2.4v-3.1c0-1-0.3-1.8-0.8-2.4c-0.5-0.6-1.2-0.9-2.1-0.9
			c-0.6,0-1.1,0.1-1.5,0.3s-0.7,0.5-1,1s-0.3,0.9-0.3,1.5l-0.3-2.7c0.4-0.8,1-1.5,1.7-1.9s1.5-0.7,2.3-0.7c1,0,1.9,0.2,2.6,0.7
			s1.3,1.1,1.6,2s0.6,1.9,0.6,3.1v3.1c0,1.2-0.2,2.2-0.6,3.1s-0.9,1.5-1.7,2s-1.6,0.7-2.7,0.7C100.5,26.4,99.8,26.2,99.1,25.8z"/>
		<path class="st0" d="M113.1,22.5c0,0.3,0.1,0.6,0.2,0.8s0.4,0.3,0.6,0.3h1.3v2.7h-1.6c-1.1,0-1.9-0.3-2.5-1s-0.9-1.6-0.9-2.8V6.3
			h2.8V22.5z"/>
		<path class="st0" d="M120.8,25.6c-0.9-0.5-1.6-1.2-2.1-2.2S118,21.4,118,20v-1.6c0-1.4,0.2-2.6,0.7-3.6s1.2-1.8,2-2.3
			s2-0.8,3.2-0.8c1.2,0,2.2,0.3,3,0.9s1.5,1.4,1.9,2.6s0.7,2.5,0.7,4v0.9H120V18h6.9c-0.1-1.2-0.4-2.1-0.9-2.7s-1.2-1-2.1-1
			c-1.1,0-1.9,0.3-2.5,1s-0.9,1.7-0.9,2.9v1.8c0,1.2,0.3,2.1,0.9,2.7s1.5,0.9,2.6,0.9c0.6,0,1.1-0.1,1.7-0.3s1.1-0.5,1.5-1l1.8,1.8
			c-0.7,0.7-1.5,1.2-2.4,1.6s-1.8,0.6-2.6,0.6C122.9,26.4,121.8,26.1,120.8,25.6z"/>
		<path class="st0" d="M144.1,25.5c-1-0.6-1.9-1.5-2.4-2.6s-0.9-2.4-0.9-3.9v-5.5c0-1.5,0.3-2.8,0.9-3.9s1.4-2,2.4-2.6
			s2.3-0.9,3.6-0.9c1.1,0,2.2,0.2,3.1,0.7s1.8,1.2,2.4,2.1s1.1,1.9,1.3,3.1h-2.9c-0.2-0.6-0.5-1.2-0.9-1.7s-0.9-0.9-1.4-1.1
			s-1.1-0.4-1.7-0.4c-0.8,0-1.5,0.2-2.1,0.6s-1.1,0.9-1.4,1.6s-0.5,1.5-0.5,2.5V19c0,0.9,0.2,1.8,0.5,2.5s0.8,1.3,1.4,1.6
			s1.3,0.6,2.1,0.6c0.6,0,1.2-0.1,1.7-0.4s1-0.6,1.4-1.1s0.7-1.1,0.9-1.7h2.9c-0.2,1.2-0.7,2.2-1.3,3.1s-1.4,1.6-2.4,2.1
			s-2,0.7-3.1,0.7C146.3,26.4,145.1,26.1,144.1,25.5z"/>
		<path class="st0" d="M160.5,25.7c-0.9-0.5-1.5-1.2-2-2.1s-0.7-2-0.7-3.3v-2.3c0-1.3,0.2-2.4,0.7-3.3s1.1-1.6,2-2.1
			s1.9-0.7,3.2-0.7s2.3,0.2,3.2,0.7s1.5,1.2,2,2.1s0.7,2,0.7,3.3v2.4c0,1.3-0.2,2.4-0.7,3.3s-1.1,1.6-2,2.1s-1.9,0.7-3.2,0.7
			S161.4,26.1,160.5,25.7z M166,22.8c0.5-0.6,0.8-1.5,0.8-2.6v-2.4c0-1.1-0.3-2-0.8-2.6s-1.3-0.9-2.3-0.9s-1.7,0.3-2.3,0.9
			s-0.8,1.5-0.8,2.6v2.4c0,1.1,0.3,2,0.8,2.6s1.3,0.9,2.3,0.9S165.4,23.4,166,22.8z"/>
		<path class="st0" d="M173.5,12h2.8v14.2h-2.8V12z M180.4,14.7c-0.4-0.2-0.8-0.2-1.3-0.2c-0.9,0-1.6,0.2-2.1,0.7s-0.7,1.2-0.7,2
			l-0.3-2.7c0.4-0.8,1-1.5,1.7-2s1.5-0.7,2.3-0.7c0.6,0,1.2,0.1,1.8,0.3s1,0.5,1.4,0.8l-1.8,2.5C181.1,15.1,180.8,14.8,180.4,14.7z"
			/>
		<path class="st0" d="M185.5,12h2.8v20h-2.8V12z M189.5,25.8c-0.7-0.4-1.1-1-1.4-1.8l0.2-3c0,0.6,0.1,1.1,0.3,1.6s0.5,0.8,1,1
			s0.9,0.3,1.5,0.3c0.9,0,1.6-0.3,2.1-0.8s0.8-1.4,0.8-2.4v-3.1c0-1-0.3-1.8-0.8-2.4s-1.2-0.9-2.1-0.9c-0.6,0-1.1,0.1-1.5,0.3
			s-0.7,0.5-1,1s-0.3,0.9-0.3,1.5l-0.3-2.7c0.4-0.8,1-1.5,1.7-1.9s1.5-0.7,2.3-0.7c1,0,1.9,0.2,2.6,0.7s1.3,1.1,1.6,2
			s0.6,1.9,0.6,3.1v3.1c0,1.2-0.2,2.2-0.6,3.1s-0.9,1.5-1.7,2s-1.6,0.7-2.7,0.7C190.9,26.4,190.2,26.2,189.5,25.8z"/>
		<path class="st0" d="M203,25.7c-0.9-0.5-1.5-1.2-2-2.1s-0.7-2-0.7-3.3v-2.3c0-1.3,0.2-2.4,0.7-3.3s1.1-1.6,2-2.1s1.9-0.7,3.2-0.7
			s2.3,0.2,3.2,0.7s1.5,1.2,2,2.1s0.7,2,0.7,3.3v2.4c0,1.3-0.2,2.4-0.7,3.3s-1.1,1.6-2,2.1s-1.9,0.7-3.2,0.7S203.8,26.1,203,25.7z
			 M208.4,22.8c0.5-0.6,0.8-1.5,0.8-2.6v-2.4c0-1.1-0.3-2-0.8-2.6s-1.3-0.9-2.3-0.9s-1.7,0.3-2.3,0.9s-0.8,1.5-0.8,2.6v2.4
			c0,1.1,0.3,2,0.8,2.6s1.3,0.9,2.3,0.9S207.9,23.4,208.4,22.8z"/>
		<path class="st0" d="M218.7,22.5c0,0.3,0.1,0.6,0.2,0.8s0.4,0.3,0.6,0.3h1.3v2.7h-1.6c-1.1,0-1.9-0.3-2.5-1s-0.9-1.6-0.9-2.8V6.3
			h2.8V22.5z"/>
		<path class="st0" d="M224.7,25.3c-0.9-0.7-1.3-1.8-1.3-3.3c0-1.4,0.4-2.5,1.2-3.2s2-1.1,3.6-1.1h4l0.2,2.2h-4.2
			c-0.7,0-1.3,0.2-1.6,0.5S226,21.3,226,22c0,0.7,0.2,1.3,0.7,1.6s1.2,0.5,2.2,0.5c1.1,0,1.9-0.1,2.4-0.3s0.8-0.6,0.8-1.1l0.3,2
			c-0.2,0.4-0.5,0.7-0.9,0.9s-0.8,0.4-1.3,0.6s-1,0.2-1.6,0.2C226.8,26.4,225.5,26,224.7,25.3z M232.1,17.2c0-0.9-0.2-1.7-0.7-2.2
			s-1.2-0.8-2.1-0.8c-0.6,0-1.1,0.1-1.7,0.3s-1,0.4-1.4,0.7l-2-1.4c0.5-0.6,1.2-1.2,2.1-1.5s1.9-0.5,2.9-0.5c1.2,0,2.2,0.2,3,0.6
			s1.5,1,1.9,1.8s0.7,1.7,0.7,2.9v9.1h-2.7V17.2z"/>
		<path class="st0" d="M237.9,12h6.4v2.5h-6.4V12z M240.1,25.3c-0.5-0.6-0.8-1.6-0.8-2.8V7.9h2.8v14.7c0,0.3,0.1,0.6,0.2,0.8
			s0.3,0.3,0.6,0.3h1.3v2.7h-1.6C241.5,26.3,240.7,25.9,240.1,25.3z"/>
		<path class="st0" d="M250.5,25.6c-0.9-0.5-1.6-1.2-2.1-2.2s-0.7-2.1-0.7-3.5v-1.6c0-1.4,0.2-2.6,0.7-3.6s1.2-1.8,2-2.3
			s2-0.8,3.2-0.8c1.2,0,2.2,0.3,3,0.9s1.5,1.4,1.9,2.6s0.7,2.5,0.7,4v0.9h-9.6V18h6.9c-0.1-1.2-0.4-2.1-0.9-2.7s-1.2-1-2.1-1
			c-1.1,0-1.9,0.3-2.5,1s-0.9,1.7-0.9,2.9v1.8c0,1.2,0.3,2.1,0.9,2.7s1.5,0.9,2.6,0.9c0.6,0,1.1-0.1,1.7-0.3s1.1-0.5,1.5-1l1.8,1.8
			c-0.7,0.7-1.5,1.2-2.4,1.6s-1.8,0.6-2.6,0.6C252.6,26.4,251.5,26.1,250.5,25.6z"/>
		<path class="st0" d="M274.1,26.1c-0.9-0.2-1.7-0.5-2.4-0.8s-1.4-0.8-2.1-1.4l1.7-2.1c0.8,0.7,1.6,1.1,2.5,1.5s1.9,0.5,3,0.5
			c1.4,0,2.6-0.3,3.3-0.8s1.2-1.3,1.2-2.3v0c0-0.7-0.2-1.2-0.5-1.6s-0.8-0.7-1.4-0.9s-1.3-0.4-2.2-0.5c0,0-0.1,0-0.1,0s-0.1,0-0.1,0
			l-0.2,0c-1.3-0.2-2.4-0.5-3.2-0.8s-1.5-0.8-2.1-1.6s-0.9-1.8-0.9-3.2v0c0-1.2,0.3-2.3,0.8-3.2s1.4-1.5,2.4-2s2.3-0.7,3.8-0.7
			c0.7,0,1.4,0.1,2.1,0.2s1.4,0.4,2,0.7s1.3,0.7,2,1.2l-1.6,2.2c-0.8-0.6-1.5-1-2.3-1.3s-1.5-0.4-2.3-0.4c-1.4,0-2.4,0.3-3.2,0.8
			s-1.1,1.3-1.1,2.3v0c0,0.7,0.2,1.2,0.6,1.6s0.9,0.7,1.4,0.9s1.4,0.4,2.4,0.6c0,0,0.1,0,0.1,0s0.1,0,0.1,0c0,0,0.1,0,0.2,0
			s0.1,0,0.2,0c1.2,0.2,2.2,0.5,3,0.9s1.5,0.9,2,1.6s0.8,1.8,0.8,3.1v0c0,1.2-0.3,2.2-0.9,3.1s-1.4,1.5-2.5,2s-2.4,0.7-3.9,0.7
			C275.9,26.4,275,26.3,274.1,26.1z"/>
		<path class="st0" d="M287.9,6.3h2.8v2.8h-2.8V6.3z M287.9,12h2.8v14.2h-2.8V12z"/>
		<path class="st0" d="M293.8,12h6.4v2.5h-6.4V12z M296.1,25.3c-0.5-0.6-0.8-1.6-0.8-2.8V7.9h2.8v14.7c0,0.3,0.1,0.6,0.2,0.8
			s0.3,0.3,0.6,0.3h1.3v2.7h-1.6C297.4,26.3,296.6,25.9,296.1,25.3z"/>
		<path class="st0" d="M306.5,25.6c-0.9-0.5-1.6-1.2-2.1-2.2s-0.7-2.1-0.7-3.5v-1.6c0-1.4,0.2-2.6,0.7-3.6s1.2-1.8,2-2.3
			s2-0.8,3.2-0.8c1.2,0,2.2,0.3,3,0.9s1.5,1.4,1.9,2.6s0.7,2.5,0.7,4v0.9h-9.6V18h6.9c-0.1-1.2-0.4-2.1-0.9-2.7s-1.2-1-2.1-1
			c-1.1,0-1.9,0.3-2.5,1s-0.9,1.7-0.9,2.9v1.8c0,1.2,0.3,2.1,0.9,2.7s1.5,0.9,2.6,0.9c0.6,0,1.1-0.1,1.7-0.3s1.1-0.5,1.5-1l1.8,1.8
			c-0.7,0.7-1.5,1.2-2.4,1.6s-1.8,0.6-2.6,0.6C308.5,26.4,307.4,26.1,306.5,25.6z"/>
	</g>
</g>
<g>
	<rect x="0.4" y="7.7" class="st1" width="25.6" height="25.6"/>
	<rect x="13.2" y="2.6" class="st2" width="17.5" height="17.5"/>
</g>
</svg>
